<svg width="100" height="100" viewBox="0 0 100 100" fill="none" xmlns="http://www.w3.org/2000/svg">
<path d="M82.1489 32.6836L81.6638 31.823L80.9653 32.5216L78.0708 35.416V25.9434H87.5459L84.9575 28.5318L84.5373 28.9519L84.8503 29.4571C88.4058 35.1961 90.2805 41.7662 90.2805 48.5001C90.2805 58.8606 85.8325 68.74 78.0708 75.629V70.022C83.3761 64.0975 86.2966 56.4547 86.2966 48.4998C86.2966 42.95 84.8649 37.5009 82.1489 32.6836ZM77.9601 35.5267C77.9601 35.5267 77.9602 35.5267 77.9602 35.5266L77.9601 35.5267Z" fill="url(#paint0_linear_333_2214)" stroke="#222222" stroke-width="1.5"/>
<path d="M12.4846 71.056L15.073 68.4676C15.3191 68.2214 15.3635 67.8382 15.1802 67.5423C11.6247 61.8032 9.75 55.2332 9.75 48.4993C9.75 38.1388 14.1979 28.2594 21.9596 21.3704V26.9768C16.6543 32.9013 13.7338 40.5441 13.7338 48.499C13.7338 54.0488 15.1655 59.4979 17.8815 64.3152C17.9966 64.5195 18.2007 64.6582 18.4331 64.69C18.6654 64.7218 18.8993 64.6431 19.0651 64.4772L21.9596 61.5828V71.056H12.4846Z" fill="url(#paint1_linear_333_2214)" stroke="#222222" stroke-width="1.5" stroke-linecap="round" stroke-linejoin="round"/>
<rect x="31.75" y="14.75" width="36.5" height="25.5" rx="1.25" stroke="#222222" stroke-width="1.5"/>
<path d="M31.5 22H68" stroke="#222222" stroke-width="1.5"/>
<path d="M42 22V26C42 26.5523 42.4477 27 43 27H57C57.5523 27 58 26.5523 58 26V22" stroke="#222222" stroke-width="1.5"/>
<rect x="43" y="7" width="14" height="4" rx="1" stroke="#222222" stroke-width="1.5"/>
<path d="M45 11V14" stroke="#222222" stroke-width="1.5"/>
<path d="M55 11V14" stroke="#222222" stroke-width="1.5"/>
<rect x="31.75" y="65.75" width="36.5" height="25.5" rx="1.25" stroke="#222222" stroke-width="1.5"/>
<path d="M31.5 73H68" stroke="#222222" stroke-width="1.5"/>
<path d="M42 73V77C42 77.5523 42.4477 78 43 78H57C57.5523 78 58 77.5523 58 77V73" stroke="#222222" stroke-width="1.5"/>
<rect x="43" y="58" width="14" height="4" rx="1" stroke="#222222" stroke-width="1.5"/>
<path d="M45 62V65" stroke="#222222" stroke-width="1.5"/>
<path d="M55 62V65" stroke="#222222" stroke-width="1.5"/>
<defs>
<linearGradient id="paint0_linear_333_2214" x1="84.1756" y1="25.1934" x2="84.1756" y2="76.4569" gradientUnits="userSpaceOnUse">
<stop offset="0.338542" stop-color="#F61003"/>
<stop offset="1" stop-color="#F49402"/>
</linearGradient>
<linearGradient id="paint1_linear_333_2214" x1="15.8548" y1="20.543" x2="15.8548" y2="71.806" gradientUnits="userSpaceOnUse">
<stop offset="0.338542" stop-color="#F61003"/>
<stop offset="1" stop-color="#F49402"/>
</linearGradient>
</defs>
</svg>
