<svg width="100" height="100" viewBox="0 0 100 100" fill="none" xmlns="http://www.w3.org/2000/svg">
<path d="M80.2628 82.5509L80.2628 82.5509L80.2555 82.5435C78.015 80.2983 74.3809 80.2889 72.1323 82.5233C71.0466 83.6021 70.4364 85.0697 70.4368 86.6008C70.4373 88.1323 71.0487 89.6008 72.1354 90.6807C74.3853 92.9165 78.0194 92.9104 80.2585 90.6666C82.4591 88.4614 82.4954 84.9136 80.3691 82.6606L80.3692 82.6605L80.3619 82.653L80.2628 82.5509ZM54.0128 82.5509L54.0129 82.5509L54.0055 82.5435C51.765 80.2983 48.1309 80.2889 45.8823 82.5233C44.7966 83.6021 44.1864 85.0697 44.1868 86.6008C44.1873 88.1323 44.7987 89.6008 45.8854 90.6807C48.1354 92.9165 51.7694 92.9104 54.0085 90.6666C56.2091 88.4614 56.2454 84.9136 54.1191 82.6606L54.1192 82.6605L54.1119 82.653L54.0128 82.5509ZM28.1795 82.5509L28.1795 82.5509L28.1721 82.5435C25.9317 80.2983 22.2976 80.2889 20.049 82.5233C18.9633 83.6021 18.3531 85.0697 18.3535 86.6008C18.3539 88.1323 18.9653 89.6008 20.0521 90.6807C22.302 92.9165 25.9361 92.9104 28.1752 90.6666C30.3758 88.4614 30.412 84.9136 28.2858 82.6606L28.2858 82.6605L28.2785 82.653L28.1795 82.5509Z" fill="url(#paint0_linear_333_2158)" stroke="#222222" stroke-width="1.5"/>
<path d="M63.3546 19.6923L63.6591 20.2102L64.2309 20.0262L64.5156 19.9346C64.5161 19.9344 64.5167 19.9343 64.5173 19.9341C65.6313 19.5821 66.7798 19.4045 67.94 19.4045C73.3557 19.4045 78.0082 23.0843 79.3218 28.4052C79.3219 28.4057 79.322 28.4062 79.3222 28.4067L79.3621 28.5736L79.3709 28.6104L79.3834 28.6462L79.5234 29.0467L79.6989 29.5494H80.2314H80.6554C87.9087 29.5494 93.8333 35.5485 93.8333 42.9457C93.8333 50.2632 88.0286 56.212 80.8759 56.3318C80.8749 56.3318 80.8739 56.3319 80.8729 56.3319L80.6554 56.3337H80.6525H51.2187C50.0004 56.3318 49.9996 56.3318 48.7164 56.3337H20.8182C13.567 56.3337 7.52506 50.5881 7.05359 43.2183L7.05167 43.1883L7.04735 43.1585L7.04249 43.125L7.04082 43.1058L7.02879 42.8587L7.02837 42.85L7.02775 42.8414C7.02658 42.825 7.02539 42.8087 7.02422 42.7924C7.01193 42.6229 7 42.4583 7 42.2922C7 35.655 11.4069 30.0725 17.7281 28.6189C17.729 28.6187 17.7298 28.6185 17.7306 28.6183L17.9273 28.5746L17.9283 28.5744L18.1944 28.5155L18.6774 28.4088L18.7695 27.9228L18.8246 27.6319L18.8247 27.6319L18.8266 27.6206C20.6576 17.0757 29.2718 8.84364 39.7568 7.60153L39.7604 7.6011C40.7955 7.47345 41.6633 7.41699 42.4924 7.41699C50.8532 7.41699 58.7125 11.9186 63.0606 19.1931C63.0609 19.1937 63.0613 19.1943 63.0616 19.1948L63.1935 19.4183L63.1943 19.4195L63.3546 19.6923Z" stroke="#222222" stroke-width="1.5"/>
<path d="M50 56V80.5" stroke="#222222" stroke-width="1.5"/>
<path d="M24 80.9025V71.5C24 70.3954 24.8954 69.5 26 69.5H74C75.1046 69.5 76 70.3954 76 71.5V80.8573" stroke="#222222" stroke-width="1.5"/>
<defs>
<linearGradient id="paint0_linear_333_2158" x1="50.1452" y1="81.6035" x2="50.1452" y2="91.6035" gradientUnits="userSpaceOnUse">
<stop offset="0.338542" stop-color="#F61003"/>
<stop offset="1" stop-color="#F49402"/>
</linearGradient>
</defs>
</svg>
