<svg width="120" height="120" viewBox="0 0 120 120" fill="none" xmlns="http://www.w3.org/2000/svg">
<rect width="120" height="120" rx="8" fill="white" fill-opacity="0.05"/>
<path d="M90.2627 92.5509L90.2627 92.5509L90.2553 92.5435C88.0149 90.2983 84.3808 90.2889 82.1322 92.5233C81.0465 93.6021 80.4363 95.0697 80.4367 96.6008C80.4372 98.1323 81.0485 99.6008 82.1353 100.681C84.3852 102.916 88.0193 102.91 90.2584 100.667C92.459 98.4614 92.4952 94.9136 90.369 92.6606L90.369 92.6605L90.3617 92.653L90.2627 92.5509ZM64.0127 92.5509L64.0127 92.5509L64.0054 92.5435C61.7649 90.2983 58.1308 90.2889 55.8822 92.5233C54.7965 93.6021 54.1863 95.0697 54.1867 96.6008C54.1872 98.1323 54.7986 99.6008 55.8853 100.681C58.1352 102.916 61.7693 102.91 64.0084 100.667C66.209 98.4614 66.2452 94.9136 64.119 92.6606L64.119 92.6605L64.1117 92.653L64.0127 92.5509ZM38.1794 92.5509L38.1794 92.5509L38.172 92.5435C35.9315 90.2983 32.2975 90.2889 30.0489 92.5233C28.9632 93.6021 28.353 95.0697 28.3534 96.6008C28.3538 98.1323 28.9652 99.6008 30.052 100.681C32.3019 102.916 35.936 102.91 38.1751 100.667C40.3756 98.4614 40.4119 94.9136 38.2856 92.6606L38.2857 92.6605L38.2784 92.653L38.1794 92.5509Z" fill="url(#paint0_linear_215_2486)" stroke="white" stroke-width="1.5"/>
<path d="M73.3546 29.6923L73.6591 30.2102L74.2309 30.0262L74.5156 29.9346C74.5161 29.9344 74.5167 29.9343 74.5173 29.9341C75.6313 29.5821 76.7798 29.4045 77.94 29.4045C83.3557 29.4045 88.0082 33.0843 89.3218 38.4052C89.3219 38.4057 89.322 38.4062 89.3222 38.4067L89.3621 38.5736L89.3709 38.6104L89.3834 38.6462L89.5234 39.0467L89.6989 39.5494H90.2314H90.6554C97.9087 39.5494 103.833 45.5485 103.833 52.9457C103.833 60.2632 98.0286 66.212 90.8759 66.3318C90.8749 66.3318 90.8739 66.3319 90.8729 66.3319L90.6554 66.3337H90.6525H61.2187C60.0004 66.3318 59.9996 66.3318 58.7164 66.3337H30.8182C23.567 66.3337 17.5251 60.5881 17.0536 53.2183L17.0517 53.1883L17.0474 53.1585L17.0425 53.125L17.0408 53.1058L17.0288 52.8587L17.0284 52.85L17.0278 52.8414C17.0266 52.825 17.0254 52.8087 17.0242 52.7924C17.0119 52.6229 17 52.4583 17 52.2922C17 45.655 21.4069 40.0725 27.7281 38.6189C27.729 38.6187 27.7298 38.6185 27.7306 38.6183L27.9273 38.5746L27.9283 38.5744L28.1944 38.5155L28.6774 38.4088L28.7695 37.9228L28.8246 37.6319L28.8247 37.6319L28.8266 37.6206C30.6576 27.0757 39.2718 18.8436 49.7568 17.6015L49.7604 17.6011C50.7955 17.4735 51.6633 17.417 52.4924 17.417C60.8532 17.417 68.7125 21.9186 73.0606 29.1931C73.0609 29.1937 73.0613 29.1943 73.0616 29.1948L73.1935 29.4183L73.1943 29.4195L73.3546 29.6923Z" stroke="white" stroke-width="1.5"/>
<path d="M60 66V90.5" stroke="white" stroke-width="1.5"/>
<path d="M34 90.9025V81.5C34 80.3954 34.8954 79.5 36 79.5H84C85.1046 79.5 86 80.3954 86 81.5V90.8573" stroke="white" stroke-width="1.5"/>
<defs>
<linearGradient id="paint0_linear_215_2486" x1="60.1451" y1="91.6035" x2="60.1451" y2="101.604" gradientUnits="userSpaceOnUse">
<stop offset="0.338542" stop-color="#F61003"/>
<stop offset="1" stop-color="#F49402"/>
</linearGradient>
</defs>
</svg>
