<svg width="100" height="101" viewBox="0 0 100 101" fill="none" xmlns="http://www.w3.org/2000/svg">
<path d="M78.0064 76.9569C77.9103 76.9569 77.8142 76.9361 77.7243 76.8963C77.4788 76.7855 77.3209 76.5401 77.3209 76.2714V70.4969C77.3209 70.3279 77.3827 70.1651 77.4966 70.0391C82.6886 64.2498 85.5467 56.778 85.5467 48.9998C85.5467 43.5789 84.1482 38.2567 81.4957 33.5519L78.4906 36.557C78.2929 36.7547 78.0009 36.8123 77.7433 36.7052C77.4881 36.6005 77.321 36.3502 77.321 36.0729V26.3788C77.321 26.0006 77.6282 25.6934 78.0065 25.6934H87.7005C87.9772 25.6934 88.2281 25.8604 88.334 26.1169C88.4411 26.3733 88.3817 26.6677 88.1859 26.8642L85.488 29.5621C89.1167 35.4193 91.0306 42.1261 91.0306 49.0001C91.0306 59.6239 86.4489 69.751 78.46 76.7861C78.3315 76.8987 78.1698 76.9569 78.0064 76.9569Z" fill="url(#paint0_linear_277_6442)"/>
<path d="M78.0709 76.129V70.522C83.3763 64.5975 86.2967 56.9547 86.2967 48.9998C86.2967 43.45 84.865 38.0009 82.1491 33.1836L81.6639 32.323L80.9654 33.0216L78.071 35.916V26.4434H87.546L84.9576 29.0318L84.5375 29.4519L84.8504 29.9571C88.4059 35.6961 90.2806 42.2662 90.2806 49.0001C90.2806 59.3606 85.8327 69.24 78.0709 76.129Z" stroke="white" stroke-opacity="0.9" stroke-width="1.5"/>
<path d="M22.0241 72.306H12.3301C12.0534 72.306 11.8025 72.1389 11.6966 71.8824C11.5895 71.626 11.6489 71.3316 11.8447 71.1352L14.5426 68.4372C10.9139 62.58 9 55.8732 9 48.9993C9 38.3754 13.5817 28.2483 21.5706 21.2133C21.7738 21.0352 22.0615 20.9942 22.3069 21.1025C22.5517 21.2133 22.7096 21.4587 22.7096 21.7274V27.5019C22.7096 27.6708 22.6478 27.8336 22.5339 27.9597C17.342 33.749 14.4838 41.2208 14.4838 48.999C14.4838 54.4199 15.8823 59.742 18.5348 64.4469L21.54 61.4417C21.7358 61.244 22.0296 61.1883 22.2872 61.2936C22.5425 61.3983 22.7096 61.6486 22.7096 61.9259V71.6199C22.7096 71.9982 22.4024 72.306 22.0241 72.306Z" fill="url(#paint1_linear_277_6442)"/>
<path d="M21.9596 26.7555C21.5756 26.7882 21.2741 27.1103 21.2741 27.5027C21.2741 27.7041 21.3535 27.8869 21.4826 28.0216C16.4795 33.866 13.7338 41.2858 13.7338 48.999C13.7338 54.5488 15.1655 59.9979 17.8815 64.8152C17.9966 65.0195 18.2007 65.1582 18.4331 65.19C18.6654 65.2218 18.8993 65.1431 19.0651 64.9772L21.9596 62.0828V71.556H12.4846L15.073 68.9676C15.3191 68.7214 15.3635 68.3382 15.1802 68.0423C11.6247 62.3032 9.75 55.7332 9.75 48.9993C9.75 38.6388 14.1979 28.7594 21.9596 21.8704V26.7555Z" stroke="white" stroke-opacity="0.9" stroke-width="1.5" stroke-linecap="round" stroke-linejoin="round"/>
<rect x="31.75" y="15.25" width="36.5" height="25.5" rx="1.25" stroke="white" stroke-opacity="0.9" stroke-width="1.5"/>
<path d="M31.5 22.5H68" stroke="white" stroke-opacity="0.9" stroke-width="1.5"/>
<path d="M42 22.5V26.5C42 27.0523 42.4477 27.5 43 27.5H57C57.5523 27.5 58 27.0523 58 26.5V22.5" stroke="white" stroke-opacity="0.9" stroke-width="1.5"/>
<rect x="43" y="7.5" width="14" height="4" rx="1" stroke="white" stroke-opacity="0.9" stroke-width="1.5"/>
<path d="M45 11.5V14.5" stroke="white" stroke-opacity="0.9" stroke-width="1.5"/>
<path d="M55 11.5V14.5" stroke="white" stroke-opacity="0.9" stroke-width="1.5"/>
<rect x="31.75" y="66.25" width="36.5" height="25.5" rx="1.25" stroke="white" stroke-opacity="0.9" stroke-width="1.5"/>
<path d="M31.5 73.5H68" stroke="white" stroke-opacity="0.9" stroke-width="1.5"/>
<path d="M42 73.5V77.5C42 78.0523 42.4477 78.5 43 78.5H57C57.5523 78.5 58 78.0523 58 77.5V73.5" stroke="white" stroke-opacity="0.9" stroke-width="1.5"/>
<rect x="43" y="58.5" width="14" height="4" rx="1" stroke="white" stroke-opacity="0.9" stroke-width="1.5"/>
<path d="M45 62.5V65.5" stroke="white" stroke-opacity="0.9" stroke-width="1.5"/>
<path d="M55 62.5V65.5" stroke="white" stroke-opacity="0.9" stroke-width="1.5"/>
<defs>
<linearGradient id="paint0_linear_277_6442" x1="84.1758" y1="25.6934" x2="84.1758" y2="76.9569" gradientUnits="userSpaceOnUse">
<stop offset="0.338542" stop-color="#F61003"/>
<stop offset="1" stop-color="#F49402"/>
</linearGradient>
<linearGradient id="paint1_linear_277_6442" x1="15.8548" y1="21.043" x2="15.8548" y2="72.306" gradientUnits="userSpaceOnUse">
<stop offset="0.338542" stop-color="#F61003"/>
<stop offset="1" stop-color="#F49402"/>
</linearGradient>
</defs>
</svg>
