<svg width="100" height="101" viewBox="0 0 100 101" fill="none" xmlns="http://www.w3.org/2000/svg">
<path d="M89.8109 8.75C91.928 8.75 93.6442 10.4662 93.6442 12.5833V88.4167C93.6442 90.5338 91.928 92.25 89.8109 92.25H10.4167C8.29962 92.25 6.58337 90.5338 6.58337 88.4167V12.5833C6.58337 10.4662 8.29962 8.75 10.4167 8.75H89.8109Z" stroke="white" stroke-opacity="0.9" stroke-width="1.5"/>
<path d="M6 24.5L94 24.5" stroke="white" stroke-opacity="0.9" stroke-width="1.5"/>
<circle cx="16" cy="17.5" r="3" fill="white" fill-opacity="0.9"/>
<circle cx="16" cy="17.5" r="2.5" stroke="white" stroke-opacity="0.9"/>
<circle cx="24" cy="17.5" r="3" fill="white" fill-opacity="0.9"/>
<circle cx="24" cy="17.5" r="2.5" stroke="white" stroke-opacity="0.9"/>
<circle cx="32" cy="17.5" r="3" fill="white" fill-opacity="0.9"/>
<circle cx="32" cy="17.5" r="2.5" stroke="white" stroke-opacity="0.9"/>
<circle cx="41" cy="69.5" r="3" fill="white" fill-opacity="0.9"/>
<circle cx="41" cy="69.5" r="2.5" stroke="white" stroke-opacity="0.9"/>
<circle cx="57" cy="69.5" r="3" fill="white" fill-opacity="0.9"/>
<circle cx="57" cy="69.5" r="2.5" stroke="white" stroke-opacity="0.9"/>
<path d="M73.1115 40.5C74.3066 40.5 74.1444 42.0043 73.1849 41.9979L73.1115 42L67.7052 41.9996L65.9665 48.5613L62.2267 63.0403C61.9031 64.2931 60.7948 65.1786 59.5102 65.2255L59.4028 65.2275H38.9343C37.7461 65.2275 36.6766 64.5066 36.2307 63.4052L31.2139 51.011C30.6095 49.5179 31.3299 47.8175 32.8231 47.2131C33.1708 47.0724 33.5423 47 33.9174 47H65L66.7 40.5C68.585 40.5 71.0749 40.5 73.1115 40.5Z" fill="url(#paint0_linear_277_6430)"/>
<path d="M65 47.75H65.4055L65.2415 48.3691L65.2403 48.3737L61.5006 62.8527C61.2607 63.7813 60.4405 64.4383 59.4891 64.4758L59.3959 64.4775H38.9343C38.0516 64.4775 37.2571 63.942 36.9259 63.1238L31.9091 50.7296C31.4601 49.6204 31.9953 48.3573 33.1045 47.9083C33.3628 47.8038 33.6388 47.75 33.9174 47.75H65Z" stroke="white" stroke-opacity="0.9" stroke-width="1.5"/>
<defs>
<linearGradient id="paint0_linear_277_6430" x1="52.4783" y1="40.5" x2="52.4783" y2="65.2275" gradientUnits="userSpaceOnUse">
<stop offset="0.338542" stop-color="#F61003"/>
<stop offset="1" stop-color="#F49402"/>
</linearGradient>
</defs>
</svg>
