<svg width="100" height="100" viewBox="0 0 100 100" fill="none" xmlns="http://www.w3.org/2000/svg">
<path d="M89.811 8.25C91.9281 8.25 93.6443 9.96624 93.6443 12.0833V87.9167C93.6443 90.0338 91.9281 91.75 89.811 91.75H10.4168C8.29974 91.75 6.5835 90.0338 6.5835 87.9167V12.0833C6.5835 9.96624 8.29974 8.25 10.4168 8.25H89.811Z" stroke="#222222" stroke-width="1.5"/>
<path d="M6 24L94 24" stroke="#222222" stroke-width="1.5"/>
<circle cx="16" cy="17" r="2.5" fill="#222222" stroke="#222222"/>
<circle cx="24" cy="17" r="2.5" fill="#222222" stroke="#222222"/>
<circle cx="32" cy="17" r="2.5" fill="#222222" stroke="#222222"/>
<circle cx="41" cy="69" r="2.5" fill="#222222" stroke="#222222"/>
<circle cx="57" cy="69" r="2.5" fill="#222222" stroke="#222222"/>
<path d="M65 47.25H65.4055L65.2415 47.8691L65.2403 47.8737L61.5006 62.3527C61.2607 63.2813 60.4405 63.9383 59.4891 63.9758L59.3959 63.9775H38.9343C38.0516 63.9775 37.2571 63.442 36.9259 62.6238L31.9091 50.2296C31.4601 49.1204 31.9953 47.8573 33.1045 47.4083C33.3628 47.3038 33.6388 47.25 33.9174 47.25H65Z" fill="url(#paint0_linear_333_2178)" stroke="#222222" stroke-width="1.5"/>
<defs>
<linearGradient id="paint0_linear_333_2178" x1="52.4783" y1="40" x2="52.4783" y2="64.7275" gradientUnits="userSpaceOnUse">
<stop offset="0.338542" stop-color="#F61003"/>
<stop offset="1" stop-color="#F49402"/>
</linearGradient>
</defs>
</svg>
