<svg width="13" height="13" viewBox="0 0 13 13" fill="none" xmlns="http://www.w3.org/2000/svg">
<path d="M0.482178 1.16699C0.482178 0.89085 0.706035 0.666992 0.982178 0.666992C7.51755 0.666992 12.8155 5.96496 12.8155 12.5003C12.8155 12.7765 12.5917 13.0003 12.3155 13.0003C12.0394 13.0003 11.8155 12.7765 11.8155 12.5003C11.8155 6.51724 6.96526 1.66699 0.982178 1.66699C0.706035 1.66699 0.482178 1.44313 0.482178 1.16699Z" fill="#4E4E4E"/>
<path d="M0.482178 11.667C0.482178 10.9306 1.07913 10.3337 1.81551 10.3337C2.55189 10.3337 3.14884 10.9306 3.14884 11.667C3.14884 12.4034 2.55189 13.0003 1.81551 13.0003C1.07913 13.0003 0.482178 12.4034 0.482178 11.667Z" fill="#4E4E4E"/>
<path d="M0.982178 5.33366C0.706035 5.33366 0.482178 5.55752 0.482178 5.83366C0.482178 6.1098 0.706035 6.33366 0.982178 6.33366C4.38793 6.33366 7.14884 9.09457 7.14884 12.5003C7.14884 12.7765 7.3727 13.0003 7.64884 13.0003C7.92499 13.0003 8.14884 12.7765 8.14884 12.5003C8.14884 8.54228 4.94022 5.33366 0.982178 5.33366Z" fill="#4E4E4E"/>
</svg>
